# This file uses centimeters as units for non-parametric coordinates.

mtllib PowerUp.mtl
g default
v 3.272685 3.950095 0.281278
v 3.272685 5.561183 0.281278
v -3.272685 3.950095 0.281278
v -3.272685 5.561183 0.281278
v -3.272685 3.950095 -0.281278
v -3.272685 5.561183 -0.281278
v 3.272685 3.950095 -0.281278
v 3.272685 5.561183 -0.281278
v 0.000000 6.546913 0.281278
v 0.000000 8.158002 0.281278
v 0.000000 8.158002 -0.281278
v 0.000000 6.546913 -0.281278
v 2.507796 1.695300 0.215538
v 2.507796 2.929847 0.215538
v -2.507796 1.695300 0.215538
v -2.507796 2.929847 0.215538
v -2.507796 1.695300 -0.215538
v -2.507796 2.929847 -0.215538
v 2.507796 1.695300 -0.215538
v 2.507796 2.929847 -0.215538
v 0.000000 3.685193 0.215538
v 0.000000 4.919740 0.215538
v 0.000000 4.919740 -0.215538
v 0.000000 3.685193 -0.215538
vt 0.998008 0.336700
vt 0.008963 0.581838
vt 0.700660 0.684039
vt 0.998008 0.650494
vt 0.044216 0.704517
vt 0.056716 0.002491
vt 0.503394 0.349880
vt 0.051700 0.004349
vt 0.038870 0.287976
vt 0.227736 0.697266
vt 0.003271 0.384282
vt 0.001992 0.286543
vt 0.792033 0.327245
vt 0.030576 0.580607
vt 0.031938 0.384361
vt 0.960623 0.319058
vt 0.998008 0.771502
vt 0.517392 0.695825
vt 0.227733 0.002489
vt 0.955755 0.650493
vt 0.672920 0.001540
vt 0.510145 0.012299
vt 0.332375 0.349876
vt 0.056724 0.697288
vt 0.955754 0.336700
vt 0.013504 0.002712
vt 0.027432 0.706672
vt 0.955755 0.771502
vt 0.792033 0.327245
vt 0.960623 0.319058
vt 0.700660 0.684039
vt 0.517392 0.695825
vt 0.998008 0.650494
vt 0.998008 0.771502
vt 0.955755 0.771502
vt 0.955755 0.650493
vt 0.056716 0.002491
vt 0.227733 0.002489
vt 0.503394 0.349880
vt 0.332375 0.349876
vt 0.038870 0.287976
vt 0.031938 0.384361
vt 0.003271 0.384282
vt 0.001992 0.286543
vt 0.008963 0.581838
vt 0.030576 0.580607
vt 0.044216 0.704517
vt 0.027432 0.706672
vt 0.955754 0.336700
vt 0.998008 0.336700
vt 0.510145 0.012299
vt 0.672920 0.001540
vt 0.227736 0.697266
vt 0.056724 0.697288
vt 0.013504 0.002712
vt 0.051700 0.004349
vn 0.000000 0.000000 1.000000
vn 0.000000 0.000000 1.000000
vn 0.000000 0.000000 1.000000
vn 0.000000 0.000000 1.000000
vn -1.000000 0.000000 0.000000
vn -1.000000 0.000000 0.000000
vn -1.000000 0.000000 0.000000
vn -1.000000 0.000000 0.000000
vn 0.000000 0.000000 -1.000000
vn 0.000000 0.000000 -1.000000
vn 0.000000 0.000000 -1.000000
vn 0.000000 0.000000 -1.000000
vn 1.000000 0.000000 0.000000
vn 1.000000 0.000000 0.000000
vn 1.000000 0.000000 0.000000
vn 1.000000 0.000000 0.000000
vn 0.000000 1.000000 0.000000
vn 0.000000 1.000000 0.000000
vn -0.621577 0.783353 0.000000
vn -0.621577 0.783353 0.000000
vn 0.000000 -1.000000 0.000000
vn 0.000000 -1.000000 0.000000
vn 0.621577 -0.783353 0.000000
vn 0.621577 -0.783353 0.000000
vn 0.000000 0.000000 1.000000
vn 0.000000 0.000000 1.000000
vn 0.621577 0.783353 0.000000
vn 0.621577 0.783353 0.000000
vn 0.000000 0.000000 -1.000000
vn 0.000000 0.000000 -1.000000
vn -0.621577 -0.783353 0.000000
vn -0.621577 -0.783353 0.000000
vn -0.000000 0.000000 1.000000
vn -0.000000 0.000000 1.000000
vn 0.000000 0.000000 1.000000
vn 0.000000 0.000000 1.000000
vn -1.000000 0.000000 0.000000
vn -1.000000 0.000000 0.000000
vn -1.000000 0.000000 0.000000
vn -1.000000 0.000000 0.000000
vn 0.000000 0.000000 -1.000000
vn 0.000000 0.000000 -1.000000
vn 0.000000 0.000000 -1.000000
vn 0.000000 0.000000 -1.000000
vn 1.000000 0.000000 0.000000
vn 1.000000 0.000000 0.000000
vn 1.000000 0.000000 0.000000
vn 1.000000 0.000000 0.000000
vn 0.000000 1.000000 0.000000
vn 0.000000 1.000000 0.000000
vn -0.621577 0.783353 0.000000
vn -0.621577 0.783353 0.000000
vn 0.000000 -1.000000 0.000000
vn 0.000000 -1.000000 0.000000
vn 0.621577 -0.783353 0.000000
vn 0.621577 -0.783353 0.000000
vn -0.000000 0.000000 1.000000
vn -0.000000 0.000000 1.000000
vn 0.621577 0.783353 0.000000
vn 0.621577 0.783353 0.000000
vn 0.000000 0.000000 -1.000000
vn 0.000000 0.000000 -1.000000
vn -0.621577 -0.783353 0.000000
vn -0.621577 -0.783353 0.000000
s 1
g PowerUP
usemtl lambert2SG
f 9/13/1 10/16/2 4/3/3 3/18/4
s off
f 3/4/5 4/17/6 6/28/7 5/20/8
s 2
f 5/6/9 6/19/10 11/7/11 12/23/12
s off
f 7/9/13 8/15/14 2/11/15 1/12/16
s 3
f 10/2/17 11/14/18 6/5/19 4/27/20
s 4
f 12/25/21 9/1/22 3/4/23 5/20/24
s 1
f 1/22/25 2/21/26 10/16/2 9/13/1
s 3
f 2/11/27 8/15/28 11/14/18 10/2/17
s 2
f 12/23/12 11/7/11 8/10/29 7/24/30
s 4
f 7/9/31 1/12/32 9/26/22 12/8/21
s 5
f 21/29/33 22/30/34 16/31/35 15/32/36
s off
f 15/33/37 16/34/38 18/35/39 17/36/40
s 6
f 17/37/41 18/38/42 23/39/43 24/40/44
s off
f 19/41/45 20/42/46 14/43/47 13/44/48
s 7
f 22/45/49 23/46/50 18/47/51 16/48/52
s 8
f 24/49/53 21/50/54 15/33/55 17/36/56
s 5
f 13/51/57 14/52/58 22/30/34 21/29/33
s 7
f 14/43/59 20/42/60 23/46/50 22/45/49
s 6
f 24/40/44 23/39/43 20/53/61 19/54/62
s 8
f 19/41/63 13/44/64 21/55/54 24/56/53
