# This file uses centimeters as units for non-parametric coordinates.

mtllib asd.mtl
g default
v -4.188939 0.002285 7.255349
v -3.688939 0.002285 7.255349
v -4.188939 1.837194 7.255349
v -3.688939 1.837194 7.255349
v -4.188939 1.837194 -0.253589
v -3.688939 1.837194 -0.253589
v -4.188939 0.002285 -0.253589
v -3.688939 0.002285 -0.253589
vt 0.375000 0.000000
vt 0.625000 0.000000
vt 0.375000 0.250000
vt 0.625000 0.250000
vt 0.375000 0.500000
vt 0.625000 0.500000
vt 0.375000 0.750000
vt 0.625000 0.750000
vt 0.375000 1.000000
vt 0.625000 1.000000
vt 0.875000 0.000000
vt 0.875000 0.250000
vt 0.125000 0.000000
vt 0.125000 0.250000
vn 0.000000 0.000000 1.000000
vn 0.000000 0.000000 1.000000
vn 0.000000 0.000000 1.000000
vn 0.000000 0.000000 1.000000
vn 0.000000 1.000000 0.000000
vn 0.000000 1.000000 0.000000
vn 0.000000 1.000000 0.000000
vn 0.000000 1.000000 0.000000
vn 0.000000 0.000000 -1.000000
vn 0.000000 0.000000 -1.000000
vn 0.000000 0.000000 -1.000000
vn 0.000000 0.000000 -1.000000
vn 0.000000 -1.000000 0.000000
vn 0.000000 -1.000000 0.000000
vn 0.000000 -1.000000 0.000000
vn 0.000000 -1.000000 0.000000
vn 1.000000 0.000000 0.000000
vn 1.000000 0.000000 0.000000
vn 1.000000 0.000000 0.000000
vn 1.000000 0.000000 0.000000
vn -1.000000 0.000000 0.000000
vn -1.000000 0.000000 0.000000
vn -1.000000 0.000000 0.000000
vn -1.000000 0.000000 0.000000
s off
g pCube1 Lvl_2
usemtl lambert2SG
f 1/1/1 2/2/2 4/4/3 3/3/4
f 3/3/5 4/4/6 6/6/7 5/5/8
f 5/5/9 6/6/10 8/8/11 7/7/12
f 7/7/13 8/8/14 2/10/15 1/9/16
f 2/2/17 8/11/18 6/12/19 4/4/20
f 7/13/21 1/1/22 3/3/23 5/14/24
g default
v -0.250000 0.002285 0.065499
v 0.250000 0.002285 0.065499
v -0.250000 1.837194 0.065499
v 0.250000 1.837194 0.065499
v -0.250000 1.837194 -6.934501
v 0.250000 1.837194 -6.934501
v -0.250000 0.002285 -6.934501
v 0.250000 0.002285 -6.934501
v -0.250000 1.837194 -4.834501
v 0.250000 1.837194 -4.834501
v 0.250000 0.002285 -4.834501
v -0.250000 0.002285 -4.834501
v -0.250000 1.837194 -1.894501
v 0.250000 1.837194 -1.894501
v 0.250000 0.002285 -1.894501
v -0.250000 0.002285 -1.894501
v -0.250000 1.103230 0.065499
v 0.250000 1.103230 0.065499
v 0.250000 1.103230 -1.894501
v 0.250000 1.103230 -4.834501
v 0.250000 1.103230 -6.934501
v -0.250000 1.103230 -6.934501
v -0.250000 1.103230 -4.834501
v -0.250000 1.103230 -1.894501
vt 0.375000 0.000000
vt 0.625000 0.000000
vt 0.375000 0.250000
vt 0.625000 0.250000
vt 0.375000 0.500000
vt 0.625000 0.500000
vt 0.375000 0.750000
vt 0.625000 0.750000
vt 0.375000 1.000000
vt 0.625000 1.000000
vt 0.875000 0.000000
vt 0.875000 0.250000
vt 0.125000 0.000000
vt 0.125000 0.250000
vt 0.200000 0.250000
vt 0.375000 0.425000
vt 0.625000 0.425000
vt 0.800000 0.250000
vt 0.625000 0.825000
vt 0.800000 0.000000
vt 0.200000 0.000000
vt 0.375000 0.825000
vt 0.305000 0.250000
vt 0.375000 0.320000
vt 0.625000 0.320000
vt 0.695000 0.250000
vt 0.625000 0.930000
vt 0.695000 0.000000
vt 0.305000 0.000000
vt 0.375000 0.930000
vt 0.375000 0.150000
vt 0.625000 0.150000
vt 0.695000 0.150000
vt 0.800000 0.150000
vt 0.625000 0.600000
vt 0.875000 0.150000
vt 0.125000 0.150000
vt 0.375000 0.600000
vt 0.200000 0.150000
vt 0.305000 0.150000
vn 0.000000 0.000000 1.000000
vn 0.000000 0.000000 1.000000
vn 0.000000 0.000000 1.000000
vn 0.000000 0.000000 1.000000
vn 0.000000 1.000000 0.000000
vn 0.000000 1.000000 0.000000
vn 0.000000 1.000000 0.000000
vn 0.000000 1.000000 0.000000
vn 0.000000 0.000000 -1.000000
vn 0.000000 0.000000 -1.000000
vn 0.000000 0.000000 -1.000000
vn 0.000000 0.000000 -1.000000
vn 0.000000 -1.000000 0.000000
vn 0.000000 -1.000000 0.000000
vn 0.000000 -1.000000 0.000000
vn 0.000000 -1.000000 0.000000
vn 1.000000 0.000000 0.000000
vn 1.000000 0.000000 0.000000
vn 1.000000 0.000000 0.000000
vn 1.000000 0.000000 0.000000
vn -1.000000 0.000000 0.000000
vn -1.000000 0.000000 0.000000
vn -1.000000 0.000000 0.000000
vn -1.000000 0.000000 0.000000
vn 0.000000 1.000000 0.000000
vn 0.000000 1.000000 0.000000
vn 1.000000 0.000000 0.000000
vn 1.000000 0.000000 0.000000
vn 0.000000 -1.000000 0.000000
vn 0.000000 -1.000000 0.000000
vn -1.000000 0.000000 0.000000
vn -1.000000 0.000000 0.000000
vn 0.000000 1.000000 0.000000
vn 0.000000 1.000000 0.000000
vn 1.000000 0.000000 0.000000
vn 1.000000 0.000000 0.000000
vn 0.000000 -1.000000 0.000000
vn 0.000000 -1.000000 0.000000
vn -1.000000 0.000000 0.000000
vn -1.000000 0.000000 0.000000
vn 0.000000 0.000000 1.000000
vn 0.000000 0.000000 1.000000
vn 1.000000 0.000000 0.000000
vn 1.000000 0.000000 0.000000
vn 1.000000 0.000000 0.000000
vn 1.000000 0.000000 0.000000
vn 0.000000 0.000000 -1.000000
vn 0.000000 0.000000 -1.000000
vn -1.000000 0.000000 0.000000
vn -1.000000 0.000000 0.000000
vn -1.000000 0.000000 0.000000
vn -1.000000 0.000000 0.000000
s 1
g Lvl_2 pCube3
usemtl lambert2SG
f 25/45/25 26/46/26 12/18/27 11/17/28
s 2
f 17/30/29 18/31/30 14/20/31 13/19/32
s 3
f 13/19/33 14/20/34 29/49/35 30/52/36
s 4
f 15/21/37 16/22/38 19/33/39 20/36/40
s 5
f 18/32/41 28/48/42 29/50/43 14/26/44
s 6
f 30/51/45 31/53/46 17/29/47 13/28/48
s 2
f 21/38/49 22/39/50 18/31/30 17/30/29
s 5
f 22/40/51 27/47/52 28/48/42 18/32/41
s 4
f 20/36/40 19/33/39 23/41/53 24/44/54
s 6
f 17/29/47 31/53/46 32/54/55 21/37/56
s 2
f 11/17/57 12/18/58 22/39/50 21/38/49
s 5
f 26/46/59 27/47/52 22/40/51 12/18/60
s 4
f 24/44/54 23/41/53 10/24/61 9/23/62
s 6
f 21/37/56 32/54/55 25/45/63 11/17/64
s 1
f 9/15/65 10/16/66 26/46/26 25/45/25
s 5
f 10/16/67 23/42/68 27/47/52 26/46/59
f 28/48/42 27/47/52 23/42/68 19/34/69
f 29/50/43 28/48/42 19/34/69 16/25/70
s 3
f 30/52/36 29/49/35 16/22/71 15/21/72
s 6
f 15/27/73 20/35/74 31/53/46 30/51/45
f 32/54/55 31/53/46 20/35/74 24/43/75
f 25/45/63 32/54/55 24/43/75 9/15/76
g default
v 3.887714 0.002285 0.250000
v 3.887714 0.002285 -0.250000
v 3.887714 1.837195 0.250000
v 3.887714 1.837195 -0.250000
v -3.887714 1.837195 0.250000
v -3.887714 1.837195 -0.250000
v -3.887714 0.002285 0.250000
v -3.887714 0.002285 -0.250000
v 3.887714 1.103231 0.250000
v 3.887714 1.103231 -0.250000
v -3.887714 1.103231 -0.250000
v -3.887714 1.103231 0.250000
v -2.551374 1.837195 0.250000
v -2.551374 1.837195 -0.250000
v -2.551374 1.103231 -0.250000
v -2.551374 0.002285 -0.250000
v -2.551374 0.002285 0.250000
v -2.551374 1.103231 0.250000
v -1.777982 1.837195 0.250000
v -1.777982 1.837195 -0.250000
v -1.777982 1.103231 -0.250000
v -1.777983 0.002285 -0.250000
v -1.777983 0.002285 0.250000
v -1.777983 1.103231 0.250000
v 1.414740 1.837195 0.250000
v 1.414740 1.837195 -0.250000
v 1.414740 1.103231 -0.250000
v 1.414740 0.002285 -0.250000
v 1.414740 0.002285 0.250000
v 1.414740 1.103231 0.250000
v 2.248749 1.837195 0.250000
v 2.248749 1.837195 -0.250000
v 2.248749 1.103231 -0.250000
v 2.248749 0.002285 -0.250000
v 2.248749 0.002285 0.250000
v 2.248749 1.103231 0.250000
vt 0.375000 0.000000
vt 0.625000 0.000000
vt 0.375000 0.250000
vt 0.625000 0.250000
vt 0.375000 0.500000
vt 0.625000 0.500000
vt 0.375000 0.750000
vt 0.625000 0.750000
vt 0.375000 1.000000
vt 0.625000 1.000000
vt 0.875000 0.000000
vt 0.875000 0.250000
vt 0.125000 0.000000
vt 0.125000 0.250000
vt 0.375000 0.150000
vt 0.625000 0.150000
vt 0.625000 0.600000
vt 0.875000 0.150000
vt 0.125000 0.150000
vt 0.375000 0.600000
vt 0.167967 0.250000
vt 0.375000 0.457033
vt 0.625000 0.457033
vt 0.832033 0.250000
vt 0.832033 0.150000
vt 0.728517 0.396483
vt 0.271483 0.396483
vt 0.167967 0.150000
vt 0.192833 0.250000
vt 0.375000 0.432167
vt 0.625000 0.432167
vt 0.807167 0.250000
vt 0.807167 0.150000
vt 0.716083 0.408917
vt 0.283917 0.408917
vt 0.192833 0.150000
vt 0.295488 0.250000
vt 0.375000 0.329512
vt 0.625000 0.329512
vt 0.704512 0.250000
vt 0.704512 0.150000
vt 0.664756 0.460244
vt 0.335244 0.460244
vt 0.295488 0.150000
vt 0.322303 0.250000
vt 0.375000 0.302697
vt 0.625000 0.302697
vt 0.677697 0.250000
vt 0.677697 0.150000
vt 0.651348 0.473652
vt 0.348651 0.473652
vt 0.322303 0.150000
vn 1.000000 0.000000 0.000000
vn 1.000000 0.000000 0.000000
vn 1.000000 0.000000 0.000000
vn 1.000000 0.000000 0.000000
vn 0.000000 1.000000 0.000000
vn 0.000000 1.000000 0.000000
vn 0.000000 1.000000 0.000000
vn 0.000000 1.000000 0.000000
vn -1.000000 0.000000 -0.000000
vn -1.000000 0.000000 -0.000000
vn -1.000000 0.000000 -0.000000
vn -1.000000 0.000000 -0.000000
vn 0.000000 -1.000000 0.000000
vn 0.000000 -1.000000 0.000000
vn 0.000000 -1.000000 0.000000
vn 0.000000 -1.000000 0.000000
vn 0.000000 0.000000 -1.000000
vn 0.000000 0.000000 -1.000000
vn 0.000000 0.000000 -1.000000
vn 0.000000 0.000000 -1.000000
vn 0.000000 0.000000 1.000000
vn 0.000000 0.000000 1.000000
vn 0.000000 0.000000 1.000000
vn 0.000000 0.000000 1.000000
vn 1.000000 0.000000 0.000000
vn 1.000000 0.000000 0.000000
vn 0.000000 0.000000 -1.000000
vn 0.000000 0.000000 -1.000000
vn -1.000000 0.000000 -0.000000
vn -1.000000 0.000000 -0.000000
vn 0.000000 0.000000 1.000000
vn 0.000000 0.000000 1.000000
vn 0.000000 1.000000 0.000000
vn 0.000000 1.000000 0.000000
vn 0.000000 0.000000 -1.000000
vn 0.000000 0.000000 -1.000000
vn 0.000000 0.000000 1.000000
vn 0.000000 0.000000 1.000000
vn 0.000000 1.000000 0.000000
vn 0.000000 1.000000 0.000000
vn 0.000000 0.000000 -1.000000
vn 0.000000 0.000000 -1.000000
vn 0.000000 0.000000 -1.000000
vn 0.000000 0.000000 -1.000000
vn 0.000000 -1.000000 0.000000
vn 0.000000 -1.000000 0.000000
vn 0.000000 -1.000000 0.000000
vn 0.000000 -1.000000 0.000000
vn 0.000000 0.000000 1.000000
vn 0.000000 0.000000 1.000000
vn 0.000000 0.000000 1.000000
vn 0.000000 0.000000 1.000000
vn 0.000000 1.000000 0.000000
vn 0.000000 1.000000 0.000000
vn 0.000000 0.000000 -1.000000
vn 0.000000 0.000000 -1.000000
vn 0.000000 0.000000 1.000000
vn 0.000000 0.000000 1.000000
vn 0.000000 1.000000 0.000000
vn 0.000000 1.000000 0.000000
vn 0.000000 0.000000 -1.000000
vn 0.000000 0.000000 -1.000000
vn 0.000000 0.000000 -1.000000
vn 0.000000 0.000000 -1.000000
vn 0.000000 -1.000000 0.000000
vn 0.000000 -1.000000 0.000000
vn 0.000000 -1.000000 0.000000
vn 0.000000 -1.000000 0.000000
vn 0.000000 0.000000 1.000000
vn 0.000000 0.000000 1.000000
vn 0.000000 0.000000 1.000000
vn 0.000000 0.000000 1.000000
vn -1.000000 0.000000 -0.000000
vn -1.000000 0.000000 -0.000000
vn -1.000000 0.000000 -0.000000
vn -1.000000 0.000000 -0.000000
vn 1.000000 0.000000 0.000000
vn 1.000000 0.000000 0.000000
vn 1.000000 0.000000 0.000000
vn 1.000000 0.000000 0.000000
vn 0.000000 -1.000000 0.000000
vn 0.000000 -1.000000 0.000000
vn 0.000000 -1.000000 0.000000
vn 0.000000 -1.000000 0.000000
vn -1.000000 0.000000 -0.000000
vn -1.000000 0.000000 -0.000000
vn -1.000000 0.000000 -0.000000
vn -1.000000 0.000000 -0.000000
vn 0.000000 -1.000000 0.000000
vn 0.000000 -1.000000 0.000000
vn 0.000000 -1.000000 0.000000
vn 0.000000 -1.000000 0.000000
vn 1.000000 0.000000 0.000000
vn 1.000000 0.000000 0.000000
vn 1.000000 0.000000 0.000000
vn 1.000000 0.000000 0.000000
s 1
g Lvl_2 pCube4
usemtl lambert2SG
f 41/69/77 42/70/78 36/58/79 35/57/80
s 2
f 45/76/81 46/77/82 38/60/83 37/59/84
s 3
f 37/59/85 38/60/86 43/71/87 44/74/88
s off
f 39/61/89 40/62/90 48/80/91 49/81/92
s 4
f 46/78/93 47/79/94 43/72/95 38/66/96
s 5
f 44/73/97 50/82/98 45/75/99 37/68/100
s 1
f 33/55/101 34/56/102 42/70/78 41/69/77
s 4
f 47/79/94 48/80/103 40/65/104 43/72/95
s 3
f 44/74/88 43/71/87 40/62/105 39/61/106
s 5
f 39/67/107 49/81/108 50/82/98 44/73/97
s 2
f 51/84/109 52/85/110 46/77/82 45/76/81
s 4
f 52/86/111 53/87/112 47/79/94 46/78/93
s 5
f 45/75/99 50/82/98 56/90/113 51/83/114
s 2
f 57/92/115 58/93/116 52/85/110 51/84/109
s 4
f 58/94/117 59/95/118 53/87/112 52/86/111
f 59/95/118 60/96/119 54/88/120 53/87/112
s off
f 55/89/121 54/88/122 60/96/123 61/97/124
s 5
f 56/90/113 55/89/125 61/97/126 62/98/127
f 51/83/114 56/90/113 62/98/127 57/91/128
s 2
f 63/100/129 64/101/130 58/93/116 57/92/115
s 4
f 64/102/131 65/103/132 59/95/118 58/94/117
s 5
f 57/91/128 62/98/127 68/106/133 63/99/134
s 2
f 35/57/135 36/58/136 64/101/130 63/100/129
s 4
f 42/70/137 65/103/132 64/102/131 36/58/138
f 34/56/139 66/104/140 65/103/132 42/70/137
s off
f 67/105/141 66/104/142 34/64/143 33/63/144
s 5
f 68/106/133 67/105/145 33/55/146 41/69/147
f 63/99/134 68/106/133 41/69/147 35/57/148
s off
f 65/103/149 66/104/150 67/105/151 68/106/152
f 60/96/153 59/95/154 62/98/155 61/97/156
f 68/106/157 62/98/158 59/95/159 65/103/160
f 53/87/161 54/88/162 55/89/163 56/90/164
f 56/90/165 50/82/166 47/79/167 53/87/168
f 48/80/169 47/79/170 50/82/171 49/81/172
g default
v 3.963292 0.002285 -6.750000
v 3.963292 0.002285 -7.250000
v 3.963292 1.837194 -6.750000
v 3.963292 1.837194 -7.250000
v -0.245937 1.837194 -6.750000
v -0.245937 1.837194 -7.250000
v -0.245937 0.002285 -7.250000
v -0.245937 0.002285 -6.750000
vt 0.375000 0.000000
vt 0.625000 0.000000
vt 0.375000 0.250000
vt 0.625000 0.250000
vt 0.375000 1.000000
vt 0.625000 1.000000
vt 0.250000 0.250000
vt 0.375000 0.375000
vt 0.625000 0.375000
vt 0.750000 0.250000
vt 0.625000 0.875000
vt 0.750000 0.000000
vt 0.250000 0.000000
vt 0.375000 0.875000
vn 1.000000 0.000000 0.000000
vn 1.000000 0.000000 0.000000
vn 1.000000 0.000000 0.000000
vn 1.000000 0.000000 0.000000
vn 0.000000 1.000000 0.000000
vn 0.000000 1.000000 0.000000
vn 0.000000 1.000000 0.000000
vn 0.000000 1.000000 0.000000
vn 0.000000 0.000000 -1.000000
vn 0.000000 0.000000 -1.000000
vn 0.000000 0.000000 -1.000000
vn 0.000000 0.000000 -1.000000
vn 0.000000 -1.000000 0.000000
vn 0.000000 -1.000000 0.000000
vn 0.000000 -1.000000 0.000000
vn 0.000000 -1.000000 0.000000
vn 0.000000 0.000000 1.000000
vn 0.000000 0.000000 1.000000
vn 0.000000 0.000000 1.000000
vn 0.000000 0.000000 1.000000
vn -1.000000 0.000000 -0.000000
vn -1.000000 0.000000 -0.000000
vn -1.000000 0.000000 -0.000000
vn -1.000000 0.000000 -0.000000
s off
g Lvl_2 pCube5
usemtl lambert2SG
f 69/107/173 70/108/174 72/110/175 71/109/176
f 71/109/177 72/110/178 74/115/179 73/114/180
f 70/108/181 75/118/182 74/116/183 72/110/184
f 76/120/185 75/117/186 70/112/187 69/111/188
f 73/113/189 76/119/190 69/107/191 71/109/192
f 74/116/193 75/117/194 76/119/195 73/114/196
g default
v 3.890169 0.002285 7.250000
v 3.890169 0.002285 6.750000
v 3.890169 1.837194 7.250000
v 3.890169 1.837194 6.750000
v -3.890169 1.837194 7.250000
v -3.890169 1.837194 6.750000
v -3.890169 0.002285 7.250000
v -3.890169 0.002285 6.750000
vt 0.375000 0.000000
vt 0.625000 0.000000
vt 0.375000 0.250000
vt 0.625000 0.250000
vt 0.375000 0.500000
vt 0.625000 0.500000
vt 0.375000 0.750000
vt 0.625000 0.750000
vt 0.375000 1.000000
vt 0.625000 1.000000
vt 0.875000 0.000000
vt 0.875000 0.250000
vt 0.125000 0.000000
vt 0.125000 0.250000
vn 1.000000 0.000000 0.000000
vn 1.000000 0.000000 0.000000
vn 1.000000 0.000000 0.000000
vn 1.000000 0.000000 0.000000
vn 0.000000 1.000000 0.000000
vn 0.000000 1.000000 0.000000
vn 0.000000 1.000000 0.000000
vn 0.000000 1.000000 0.000000
vn -1.000000 0.000000 -0.000000
vn -1.000000 0.000000 -0.000000
vn -1.000000 0.000000 -0.000000
vn -1.000000 0.000000 -0.000000
vn 0.000000 -1.000000 0.000000
vn 0.000000 -1.000000 0.000000
vn 0.000000 -1.000000 0.000000
vn 0.000000 -1.000000 0.000000
vn 0.000000 0.000000 -1.000000
vn 0.000000 0.000000 -1.000000
vn 0.000000 0.000000 -1.000000
vn 0.000000 0.000000 -1.000000
vn 0.000000 0.000000 1.000000
vn 0.000000 0.000000 1.000000
vn 0.000000 0.000000 1.000000
vn 0.000000 0.000000 1.000000
s off
g Lvl_2 pCube6
usemtl lambert2SG
f 77/121/197 78/122/198 80/124/199 79/123/200
f 79/123/201 80/124/202 82/126/203 81/125/204
f 81/125/205 82/126/206 84/128/207 83/127/208
f 83/127/209 84/128/210 78/130/211 77/129/212
f 78/122/213 84/131/214 82/132/215 80/124/216
f 83/133/217 77/121/218 79/123/219 81/134/220
g default
v 3.750000 0.002285 7.256133
v 4.250000 0.002285 7.256133
v 3.750000 1.837194 7.256133
v 4.250000 1.837194 7.256133
v 3.750000 1.837194 -7.256133
v 4.250000 1.837194 -7.256133
v 3.750000 0.002285 -7.256133
v 4.250000 0.002285 -7.256133
vt 0.375000 0.000000
vt 0.625000 0.000000
vt 0.375000 0.250000
vt 0.625000 0.250000
vt 0.375000 0.500000
vt 0.625000 0.500000
vt 0.375000 0.750000
vt 0.625000 0.750000
vt 0.375000 1.000000
vt 0.625000 1.000000
vt 0.875000 0.000000
vt 0.875000 0.250000
vt 0.125000 0.000000
vt 0.125000 0.250000
vn 0.000000 0.000000 1.000000
vn 0.000000 0.000000 1.000000
vn 0.000000 0.000000 1.000000
vn 0.000000 0.000000 1.000000
vn 0.000000 1.000000 0.000000
vn 0.000000 1.000000 0.000000
vn 0.000000 1.000000 0.000000
vn 0.000000 1.000000 0.000000
vn 0.000000 0.000000 -1.000000
vn 0.000000 0.000000 -1.000000
vn 0.000000 0.000000 -1.000000
vn 0.000000 0.000000 -1.000000
vn 0.000000 -1.000000 0.000000
vn 0.000000 -1.000000 0.000000
vn 0.000000 -1.000000 0.000000
vn 0.000000 -1.000000 0.000000
vn 1.000000 0.000000 0.000000
vn 1.000000 0.000000 0.000000
vn 1.000000 0.000000 0.000000
vn 1.000000 0.000000 0.000000
vn -1.000000 0.000000 0.000000
vn -1.000000 0.000000 0.000000
vn -1.000000 0.000000 0.000000
vn -1.000000 0.000000 0.000000
s off
g Lvl_2 pCube7
usemtl lambert2SG
f 85/135/221 86/136/222 88/138/223 87/137/224
f 87/137/225 88/138/226 90/140/227 89/139/228
f 89/139/229 90/140/230 92/142/231 91/141/232
f 91/141/233 92/142/234 86/144/235 85/143/236
f 86/136/237 92/145/238 90/146/239 88/138/240
f 91/147/241 85/135/242 87/137/243 89/148/244
