# This file uses centimeters as units for non-parametric coordinates.

mtllib Insulto.mtl
g default
v -6.449630 -0.470770 0.401001
v -5.647628 -0.470770 0.401001
v -6.449630 1.225909 0.401001
v -5.647628 1.225909 0.401001
v -6.449630 1.225909 -0.401001
v -5.647628 1.225909 -0.401001
v -6.449630 -0.470770 -0.401001
v -5.647628 -0.470770 -0.401001
v -7.268224 -0.544483 0.401001
v -6.815938 -1.206785 0.401001
v -5.281320 0.812377 0.401001
v -4.829033 0.150075 0.401001
v -5.281320 0.812377 -0.401001
v -4.829033 0.150075 -0.401001
v -7.268224 -0.544483 -0.401001
v -6.815938 -1.206785 -0.401001
v -5.307156 -1.225909 0.401001
v -4.838227 -0.575284 0.401001
v -7.259030 0.180876 0.401001
v -6.790102 0.831501 0.401001
v -7.259030 0.180876 -0.401001
v -6.790102 0.831501 -0.401001
v -5.307156 -1.225909 -0.401001
v -4.838227 -0.575284 -0.401001
vt 0.464556 0.881919
vt 0.464336 0.827526
vt 0.464245 0.712942
vt 0.464208 0.658809
vt 0.410102 0.712967
vt 0.410046 0.658860
vt 0.410045 0.827559
vt 0.409890 0.882006
vt 0.516792 0.223226
vt 0.516806 0.167931
vt 0.516814 0.002006
vt 0.516776 0.389146
vt 0.461513 0.001992
vt 0.295611 0.223202
vt 0.461497 0.167923
vt 0.461499 0.223226
vt 0.792935 0.217787
vt 0.792939 0.164184
vt 0.792935 0.003376
vt 0.792935 0.378598
vt 0.739331 0.003367
vt 0.739332 0.378602
vt 0.739330 0.164181
vt 0.739334 0.217791
vt 0.295689 0.713163
vt 0.409919 0.998008
vt 0.295611 0.659080
vt 0.464754 0.998000
vt 0.578781 0.712914
vt 0.578756 0.658774
vt 0.739330 0.432202
vt 0.685727 0.378596
vt 0.685725 0.217785
vt 0.846539 0.378599
vt 0.792935 0.432202
vt 0.846539 0.217787
vt 0.461490 0.444445
vt 0.295611 0.167913
vt 0.461487 0.389140
vt 0.682680 0.167949
vt 0.516789 0.444438
vt 0.682667 0.223246
vn 0.000000 0.000000 1.000000
vn 0.000000 0.000000 1.000000
vn 0.000000 0.000000 1.000000
vn 0.000000 0.000000 1.000000
vn 0.000000 1.000000 0.000000
vn 0.000000 1.000000 0.000000
vn 0.000000 1.000000 0.000000
vn 0.000000 1.000000 0.000000
vn 0.000000 0.000000 -1.000000
vn 0.000000 0.000000 -1.000000
vn 0.000000 0.000000 -1.000000
vn 0.000000 0.000000 -1.000000
vn 0.000000 -1.000000 0.000000
vn 0.000000 -1.000000 0.000000
vn 0.000000 -1.000000 0.000000
vn 0.000000 -1.000000 0.000000
vn 1.000000 0.000000 0.000000
vn 1.000000 0.000000 0.000000
vn 1.000000 0.000000 0.000000
vn 1.000000 0.000000 0.000000
vn -1.000000 0.000000 0.000000
vn -1.000000 0.000000 0.000000
vn -1.000000 0.000000 0.000000
vn -1.000000 0.000000 0.000000
vn 0.000000 0.000000 1.000000
vn 0.000000 0.000000 1.000000
vn 0.000000 0.000000 1.000000
vn 0.000000 0.000000 1.000000
vn 0.825811 0.563947 0.000000
vn 0.825811 0.563947 0.000000
vn 0.825811 0.563947 0.000000
vn 0.825811 0.563947 0.000000
vn 0.000000 0.000000 -1.000000
vn 0.000000 0.000000 -1.000000
vn 0.000000 0.000000 -1.000000
vn 0.000000 0.000000 -1.000000
vn -0.825811 -0.563947 0.000000
vn -0.825811 -0.563947 0.000000
vn -0.825811 -0.563947 0.000000
vn -0.825811 -0.563947 0.000000
vn 0.563947 -0.825811 0.000000
vn 0.563947 -0.825811 0.000000
vn 0.563947 -0.825811 0.000000
vn 0.563947 -0.825811 0.000000
vn -0.563947 0.825811 0.000000
vn -0.563947 0.825811 0.000000
vn -0.563947 0.825811 0.000000
vn -0.563947 0.825811 0.000000
vn 0.000000 0.000000 1.000000
vn 0.000000 0.000000 1.000000
vn 0.000000 0.000000 1.000000
vn 0.000000 0.000000 1.000000
vn -0.811251 0.584698 0.000000
vn -0.811251 0.584698 0.000000
vn -0.811251 0.584698 0.000000
vn -0.811251 0.584698 0.000000
vn 0.000000 0.000000 -1.000000
vn 0.000000 0.000000 -1.000000
vn 0.000000 0.000000 -1.000000
vn 0.000000 0.000000 -1.000000
vn 0.811251 -0.584698 0.000000
vn 0.811251 -0.584698 0.000000
vn 0.811251 -0.584698 0.000000
vn 0.811251 -0.584698 0.000000
vn 0.584697 0.811251 0.000000
vn 0.584697 0.811251 0.000000
vn 0.584697 0.811251 0.000000
vn 0.584697 0.811251 0.000000
vn -0.584697 -0.811251 0.000000
vn -0.584697 -0.811251 0.000000
vn -0.584697 -0.811251 0.000000
vn -0.584697 -0.811251 0.000000
s off
g Signo1 Insulto
usemtl lambert2SG
f 1/30/1 2/29/2 4/3/3 3/4/4
f 3/4/5 4/3/6 6/5/7 5/6/8
f 5/6/9 6/5/10 8/25/11 7/27/12
f 7/8/13 8/7/14 2/2/15 1/1/16
f 2/2/17 8/7/18 6/5/19 4/3/20
f 7/8/21 1/1/22 3/28/23 5/26/24
f 9/9/25 10/10/26 12/40/27 11/42/28
f 11/12/29 12/41/30 14/37/31 13/39/32
f 13/14/33 14/38/34 16/15/35 15/16/36
f 15/16/37 16/15/38 10/10/39 9/9/40
f 10/10/41 16/15/42 14/13/43 12/11/44
f 15/16/45 9/9/46 11/12/47 13/39/48
f 17/17/49 18/36/50 20/34/51 19/20/52
f 19/20/53 20/35/54 22/31/55 21/22/56
f 21/22/57 22/32/58 24/33/59 23/24/60
f 23/24/61 24/23/62 18/18/63 17/17/64
f 18/18/65 24/23/66 22/21/67 20/19/68
f 23/24/69 17/17/70 19/20/71 21/22/72
g default
v -9.548629 0.500000 0.500000
v -8.548629 0.500000 0.500000
v -9.548629 1.500000 0.500000
v -8.548629 1.500000 0.500000
v -9.548629 1.500000 -0.500000
v -8.548629 1.500000 -0.500000
v -9.548629 0.500000 -0.500000
v -8.548629 0.500000 -0.500000
v -9.548629 -3.500000 0.500000
v -8.548629 -3.500000 0.500000
v -9.548629 -0.500000 0.500000
v -8.548629 -0.500000 0.500000
v -9.548629 -0.500000 -0.500000
v -8.548629 -0.500000 -0.500000
v -9.548629 -3.500000 -0.500000
v -8.548629 -3.500000 -0.500000
vt 0.626414 0.447955
vt 0.626420 0.344898
vt 0.626414 0.241853
vt 0.626414 0.551008
vt 0.523361 0.241849
vt 0.523363 0.551012
vt 0.523358 0.344903
vt 0.523362 0.447962
vt 0.195029 0.388667
vt 0.195033 0.291999
vt 0.195032 0.001994
vt 0.195026 0.678673
vt 0.098362 0.001993
vt 0.098356 0.678675
vt 0.098357 0.291996
vt 0.098365 0.388663
vt 0.626415 0.654060
vt 0.523359 0.654059
vt 0.420311 0.551005
vt 0.729466 0.551008
vt 0.420305 0.447952
vt 0.729467 0.447955
vt 0.001690 0.678671
vt 0.001690 0.388667
vt 0.291741 0.388618
vt 0.291738 0.678723
vt 0.195026 0.775341
vt 0.098357 0.775340
vn 0.000000 0.000000 1.000000
vn 0.000000 0.000000 1.000000
vn 0.000000 0.000000 1.000000
vn 0.000000 0.000000 1.000000
vn 0.000000 1.000000 0.000000
vn 0.000000 1.000000 0.000000
vn 0.000000 1.000000 0.000000
vn 0.000000 1.000000 0.000000
vn 0.000000 0.000000 -1.000000
vn 0.000000 0.000000 -1.000000
vn 0.000000 0.000000 -1.000000
vn 0.000000 0.000000 -1.000000
vn 0.000000 -1.000000 0.000000
vn 0.000000 -1.000000 0.000000
vn 0.000000 -1.000000 0.000000
vn 0.000000 -1.000000 0.000000
vn 1.000000 0.000000 0.000000
vn 1.000000 0.000000 0.000000
vn 1.000000 0.000000 0.000000
vn 1.000000 0.000000 0.000000
vn -1.000000 0.000000 0.000000
vn -1.000000 0.000000 0.000000
vn -1.000000 0.000000 0.000000
vn -1.000000 0.000000 0.000000
vn 0.000000 0.000000 1.000000
vn 0.000000 0.000000 1.000000
vn 0.000000 0.000000 1.000000
vn 0.000000 0.000000 1.000000
vn 0.000000 1.000000 0.000000
vn 0.000000 1.000000 0.000000
vn 0.000000 1.000000 0.000000
vn 0.000000 1.000000 0.000000
vn 0.000000 0.000000 -1.000000
vn 0.000000 0.000000 -1.000000
vn 0.000000 0.000000 -1.000000
vn 0.000000 0.000000 -1.000000
vn 0.000000 -1.000000 0.000000
vn 0.000000 -1.000000 0.000000
vn 0.000000 -1.000000 0.000000
vn 0.000000 -1.000000 0.000000
vn 1.000000 0.000000 0.000000
vn 1.000000 0.000000 0.000000
vn 1.000000 0.000000 0.000000
vn 1.000000 0.000000 0.000000
vn -1.000000 0.000000 0.000000
vn -1.000000 0.000000 0.000000
vn -1.000000 0.000000 0.000000
vn -1.000000 0.000000 0.000000
s off
g Insulto Exclamacion1
usemtl lambert2SG
f 25/43/73 26/64/74 28/62/75 27/46/76
f 27/46/77 28/59/78 30/60/79 29/48/80
f 29/48/81 30/61/82 32/63/83 31/50/84
f 31/50/85 32/49/86 26/44/87 25/43/88
f 26/44/89 32/49/90 30/47/91 28/45/92
f 31/50/93 25/43/94 27/46/95 29/48/96
f 33/51/97 34/67/98 36/68/99 35/54/100
f 35/54/101 36/69/102 38/70/103 37/56/104
f 37/56/105 38/65/106 40/66/107 39/58/108
f 39/58/109 40/57/110 34/52/111 33/51/112
f 34/52/113 40/57/114 38/55/115 36/53/116
f 39/58/117 33/51/118 35/54/119 37/56/120
g default
v -2.401001 -0.470770 0.401001
v -1.598999 -0.470770 0.401001
v -2.401001 1.225909 0.401001
v -1.598999 1.225909 0.401001
v -2.401001 1.225909 -0.401001
v -1.598999 1.225909 -0.401001
v -2.401001 -0.470770 -0.401001
v -1.598999 -0.470770 -0.401001
v -3.219595 -0.544483 0.401001
v -2.767309 -1.206785 0.401001
v -1.232691 0.812377 0.401001
v -0.780404 0.150075 0.401001
v -1.232691 0.812377 -0.401001
v -0.780404 0.150075 -0.401001
v -3.219595 -0.544483 -0.401001
v -2.767309 -1.206785 -0.401001
v -1.258527 -1.225909 0.401001
v -0.789598 -0.575284 0.401001
v -3.210402 0.180876 0.401001
v -2.741473 0.831501 0.401001
v -3.210402 0.180876 -0.401001
v -2.741473 0.831501 -0.401001
v -1.258527 -1.225909 -0.401001
v -0.789598 -0.575284 -0.401001
vt 0.464556 0.881919
vt 0.464336 0.827526
vt 0.464245 0.712942
vt 0.464208 0.658809
vt 0.410102 0.712967
vt 0.410046 0.658860
vt 0.410045 0.827559
vt 0.409890 0.882006
vt 0.516792 0.223226
vt 0.516806 0.167931
vt 0.516814 0.002006
vt 0.516776 0.389146
vt 0.461513 0.001992
vt 0.295611 0.223202
vt 0.461497 0.167923
vt 0.461499 0.223226
vt 0.792935 0.217787
vt 0.792939 0.164184
vt 0.792935 0.003376
vt 0.792935 0.378598
vt 0.739331 0.003367
vt 0.739332 0.378602
vt 0.739330 0.164181
vt 0.739334 0.217791
vt 0.295689 0.713163
vt 0.409919 0.998008
vt 0.295611 0.659080
vt 0.464754 0.998000
vt 0.578781 0.712914
vt 0.578756 0.658774
vt 0.739330 0.432202
vt 0.685727 0.378596
vt 0.685725 0.217785
vt 0.846539 0.378599
vt 0.792935 0.432202
vt 0.846539 0.217787
vt 0.461490 0.444445
vt 0.295611 0.167913
vt 0.461487 0.389140
vt 0.682680 0.167949
vt 0.516789 0.444438
vt 0.682667 0.223246
vn 0.000000 0.000000 1.000000
vn 0.000000 0.000000 1.000000
vn 0.000000 0.000000 1.000000
vn 0.000000 0.000000 1.000000
vn 0.000000 1.000000 0.000000
vn 0.000000 1.000000 0.000000
vn 0.000000 1.000000 0.000000
vn 0.000000 1.000000 0.000000
vn 0.000000 0.000000 -1.000000
vn 0.000000 0.000000 -1.000000
vn 0.000000 0.000000 -1.000000
vn 0.000000 0.000000 -1.000000
vn 0.000000 -1.000000 0.000000
vn 0.000000 -1.000000 0.000000
vn 0.000000 -1.000000 0.000000
vn 0.000000 -1.000000 0.000000
vn 1.000000 0.000000 0.000000
vn 1.000000 0.000000 0.000000
vn 1.000000 0.000000 0.000000
vn 1.000000 0.000000 0.000000
vn -1.000000 0.000000 0.000000
vn -1.000000 0.000000 0.000000
vn -1.000000 0.000000 0.000000
vn -1.000000 0.000000 0.000000
vn 0.000000 0.000000 1.000000
vn 0.000000 0.000000 1.000000
vn 0.000000 0.000000 1.000000
vn 0.000000 0.000000 1.000000
vn 0.825811 0.563947 0.000000
vn 0.825811 0.563947 0.000000
vn 0.825811 0.563947 0.000000
vn 0.825811 0.563947 0.000000
vn 0.000000 0.000000 -1.000000
vn 0.000000 0.000000 -1.000000
vn 0.000000 0.000000 -1.000000
vn 0.000000 0.000000 -1.000000
vn -0.825811 -0.563947 0.000000
vn -0.825811 -0.563947 0.000000
vn -0.825811 -0.563947 0.000000
vn -0.825811 -0.563947 0.000000
vn 0.563947 -0.825811 0.000000
vn 0.563947 -0.825811 0.000000
vn 0.563947 -0.825811 0.000000
vn 0.563947 -0.825811 0.000000
vn -0.563947 0.825811 0.000000
vn -0.563947 0.825811 0.000000
vn -0.563947 0.825811 0.000000
vn -0.563947 0.825811 0.000000
vn 0.000000 0.000000 1.000000
vn 0.000000 0.000000 1.000000
vn 0.000000 0.000000 1.000000
vn 0.000000 0.000000 1.000000
vn -0.811251 0.584697 0.000000
vn -0.811251 0.584697 0.000000
vn -0.811251 0.584697 0.000000
vn -0.811251 0.584697 0.000000
vn 0.000000 0.000000 -1.000000
vn 0.000000 0.000000 -1.000000
vn 0.000000 0.000000 -1.000000
vn 0.000000 0.000000 -1.000000
vn 0.811251 -0.584698 0.000000
vn 0.811251 -0.584698 0.000000
vn 0.811251 -0.584698 0.000000
vn 0.811251 -0.584698 0.000000
vn 0.584697 0.811251 0.000000
vn 0.584697 0.811251 0.000000
vn 0.584697 0.811251 0.000000
vn 0.584697 0.811251 0.000000
vn -0.584697 -0.811251 0.000000
vn -0.584697 -0.811251 0.000000
vn -0.584697 -0.811251 0.000000
vn -0.584697 -0.811251 0.000000
s off
g Insulto Signo2
usemtl lambert2SG
f 41/100/121 42/99/122 44/73/123 43/74/124
f 43/74/125 44/73/126 46/75/127 45/76/128
f 45/76/129 46/75/130 48/95/131 47/97/132
f 47/78/133 48/77/134 42/72/135 41/71/136
f 42/72/137 48/77/138 46/75/139 44/73/140
f 47/78/141 41/71/142 43/98/143 45/96/144
f 49/79/145 50/80/146 52/110/147 51/112/148
f 51/82/149 52/111/150 54/107/151 53/109/152
f 53/84/153 54/108/154 56/85/155 55/86/156
f 55/86/157 56/85/158 50/80/159 49/79/160
f 50/80/161 56/85/162 54/83/163 52/81/164
f 55/86/165 49/79/166 51/82/167 53/109/168
f 57/87/169 58/106/170 60/104/171 59/90/172
f 59/90/173 60/105/174 62/101/175 61/92/176
f 61/92/177 62/102/178 64/103/179 63/94/180
f 63/94/181 64/93/182 58/88/183 57/87/184
f 58/88/185 64/93/186 62/91/187 60/89/188
f 63/94/189 57/87/190 59/90/191 61/92/192
g default
v 1.598999 -0.470770 0.401001
v 2.401001 -0.470770 0.401001
v 1.598999 1.225909 0.401001
v 2.401001 1.225909 0.401001
v 1.598999 1.225909 -0.401001
v 2.401001 1.225909 -0.401001
v 1.598999 -0.470770 -0.401001
v 2.401001 -0.470770 -0.401001
v 0.780405 -0.544483 0.401001
v 1.232691 -1.206785 0.401001
v 2.767309 0.812377 0.401001
v 3.219596 0.150075 0.401001
v 2.767309 0.812377 -0.401001
v 3.219596 0.150075 -0.401001
v 0.780405 -0.544483 -0.401001
v 1.232691 -1.206785 -0.401001
v 2.741473 -1.225909 0.401001
v 3.210402 -0.575284 0.401001
v 0.789598 0.180876 0.401001
v 1.258527 0.831501 0.401001
v 0.789598 0.180876 -0.401001
v 1.258527 0.831501 -0.401001
v 2.741473 -1.225909 -0.401001
v 3.210402 -0.575284 -0.401001
vt 0.464556 0.881919
vt 0.464336 0.827526
vt 0.464245 0.712942
vt 0.464208 0.658809
vt 0.410102 0.712967
vt 0.410046 0.658860
vt 0.410045 0.827559
vt 0.409890 0.882006
vt 0.516792 0.223226
vt 0.516806 0.167931
vt 0.516814 0.002006
vt 0.516776 0.389146
vt 0.461513 0.001992
vt 0.295611 0.223202
vt 0.461497 0.167923
vt 0.461499 0.223226
vt 0.792935 0.217787
vt 0.792939 0.164184
vt 0.792935 0.003376
vt 0.792935 0.378598
vt 0.739331 0.003367
vt 0.739332 0.378602
vt 0.739330 0.164181
vt 0.739334 0.217791
vt 0.295689 0.713163
vt 0.409919 0.998008
vt 0.295611 0.659080
vt 0.464754 0.998000
vt 0.578781 0.712914
vt 0.578756 0.658774
vt 0.739330 0.432202
vt 0.685727 0.378596
vt 0.685725 0.217785
vt 0.846539 0.378599
vt 0.792935 0.432202
vt 0.846539 0.217787
vt 0.461490 0.444445
vt 0.295611 0.167913
vt 0.461487 0.389140
vt 0.682680 0.167949
vt 0.516789 0.444438
vt 0.682667 0.223246
vn 0.000000 0.000000 1.000000
vn 0.000000 0.000000 1.000000
vn 0.000000 0.000000 1.000000
vn 0.000000 0.000000 1.000000
vn 0.000000 1.000000 0.000000
vn 0.000000 1.000000 0.000000
vn 0.000000 1.000000 0.000000
vn 0.000000 1.000000 0.000000
vn 0.000000 0.000000 -1.000000
vn 0.000000 0.000000 -1.000000
vn 0.000000 0.000000 -1.000000
vn 0.000000 0.000000 -1.000000
vn 0.000000 -1.000000 0.000000
vn 0.000000 -1.000000 0.000000
vn 0.000000 -1.000000 0.000000
vn 0.000000 -1.000000 0.000000
vn 1.000000 0.000000 0.000000
vn 1.000000 0.000000 0.000000
vn 1.000000 0.000000 0.000000
vn 1.000000 0.000000 0.000000
vn -1.000000 0.000000 0.000000
vn -1.000000 0.000000 0.000000
vn -1.000000 0.000000 0.000000
vn -1.000000 0.000000 0.000000
vn 0.000000 0.000000 1.000000
vn 0.000000 0.000000 1.000000
vn 0.000000 0.000000 1.000000
vn 0.000000 0.000000 1.000000
vn 0.825811 0.563948 0.000000
vn 0.825811 0.563948 0.000000
vn 0.825811 0.563948 0.000000
vn 0.825811 0.563948 0.000000
vn 0.000000 0.000000 -1.000000
vn 0.000000 0.000000 -1.000000
vn 0.000000 0.000000 -1.000000
vn 0.000000 0.000000 -1.000000
vn -0.825811 -0.563947 0.000000
vn -0.825811 -0.563947 0.000000
vn -0.825811 -0.563947 0.000000
vn -0.825811 -0.563947 0.000000
vn 0.563947 -0.825811 0.000000
vn 0.563947 -0.825811 0.000000
vn 0.563947 -0.825811 0.000000
vn 0.563947 -0.825811 0.000000
vn -0.563947 0.825811 0.000000
vn -0.563947 0.825811 0.000000
vn -0.563947 0.825811 0.000000
vn -0.563947 0.825811 0.000000
vn 0.000000 0.000000 1.000000
vn 0.000000 0.000000 1.000000
vn 0.000000 0.000000 1.000000
vn 0.000000 0.000000 1.000000
vn -0.811251 0.584698 0.000000
vn -0.811251 0.584698 0.000000
vn -0.811251 0.584698 0.000000
vn -0.811251 0.584698 0.000000
vn 0.000000 0.000000 -1.000000
vn 0.000000 0.000000 -1.000000
vn 0.000000 0.000000 -1.000000
vn 0.000000 0.000000 -1.000000
vn 0.811251 -0.584698 0.000000
vn 0.811251 -0.584698 0.000000
vn 0.811251 -0.584698 0.000000
vn 0.811251 -0.584698 0.000000
vn 0.584697 0.811251 0.000000
vn 0.584697 0.811251 0.000000
vn 0.584697 0.811251 0.000000
vn 0.584697 0.811251 0.000000
vn -0.584697 -0.811251 0.000000
vn -0.584697 -0.811251 0.000000
vn -0.584697 -0.811251 0.000000
vn -0.584697 -0.811251 0.000000
s off
g Insulto Signo3
usemtl lambert2SG
f 65/142/193 66/141/194 68/115/195 67/116/196
f 67/116/197 68/115/198 70/117/199 69/118/200
f 69/118/201 70/117/202 72/137/203 71/139/204
f 71/120/205 72/119/206 66/114/207 65/113/208
f 66/114/209 72/119/210 70/117/211 68/115/212
f 71/120/213 65/113/214 67/140/215 69/138/216
f 73/121/217 74/122/218 76/152/219 75/154/220
f 75/124/221 76/153/222 78/149/223 77/151/224
f 77/126/225 78/150/226 80/127/227 79/128/228
f 79/128/229 80/127/230 74/122/231 73/121/232
f 74/122/233 80/127/234 78/125/235 76/123/236
f 79/128/237 73/121/238 75/124/239 77/151/240
f 81/129/241 82/148/242 84/146/243 83/132/244
f 83/132/245 84/147/246 86/143/247 85/134/248
f 85/134/249 86/144/250 88/145/251 87/136/252
f 87/136/253 88/135/254 82/130/255 81/129/256
f 82/130/257 88/135/258 86/133/259 84/131/260
f 87/136/261 81/129/262 83/132/263 85/134/264
g default
v 5.598999 -0.470770 0.401001
v 6.401001 -0.470770 0.401001
v 5.598999 1.225909 0.401001
v 6.401001 1.225909 0.401001
v 5.598999 1.225909 -0.401001
v 6.401001 1.225909 -0.401001
v 5.598999 -0.470770 -0.401001
v 6.401001 -0.470770 -0.401001
v 4.780405 -0.544483 0.401001
v 5.232691 -1.206785 0.401001
v 6.767309 0.812377 0.401001
v 7.219596 0.150075 0.401001
v 6.767309 0.812377 -0.401001
v 7.219596 0.150075 -0.401001
v 4.780405 -0.544483 -0.401001
v 5.232691 -1.206785 -0.401001
v 6.741473 -1.225909 0.401001
v 7.210402 -0.575284 0.401001
v 4.789598 0.180876 0.401001
v 5.258527 0.831501 0.401001
v 4.789598 0.180876 -0.401001
v 5.258527 0.831501 -0.401001
v 6.741473 -1.225909 -0.401001
v 7.210402 -0.575284 -0.401001
vt 0.464556 0.881919
vt 0.464336 0.827526
vt 0.464245 0.712942
vt 0.464208 0.658809
vt 0.410102 0.712967
vt 0.410046 0.658860
vt 0.410045 0.827559
vt 0.409890 0.882006
vt 0.516792 0.223226
vt 0.516806 0.167931
vt 0.516814 0.002006
vt 0.516776 0.389146
vt 0.461513 0.001992
vt 0.295611 0.223202
vt 0.461497 0.167923
vt 0.461499 0.223226
vt 0.792935 0.217787
vt 0.792939 0.164184
vt 0.792935 0.003376
vt 0.792935 0.378598
vt 0.739331 0.003367
vt 0.739332 0.378602
vt 0.739330 0.164181
vt 0.739334 0.217791
vt 0.295689 0.713163
vt 0.409919 0.998008
vt 0.295611 0.659080
vt 0.464754 0.998000
vt 0.578781 0.712914
vt 0.578756 0.658774
vt 0.739330 0.432202
vt 0.685727 0.378596
vt 0.685725 0.217785
vt 0.846539 0.378599
vt 0.792935 0.432202
vt 0.846539 0.217787
vt 0.461490 0.444445
vt 0.295611 0.167913
vt 0.461487 0.389140
vt 0.682680 0.167949
vt 0.516789 0.444438
vt 0.682667 0.223246
vn 0.000000 0.000000 1.000000
vn 0.000000 0.000000 1.000000
vn 0.000000 0.000000 1.000000
vn 0.000000 0.000000 1.000000
vn 0.000000 1.000000 0.000000
vn 0.000000 1.000000 0.000000
vn 0.000000 1.000000 0.000000
vn 0.000000 1.000000 0.000000
vn 0.000000 0.000000 -1.000000
vn 0.000000 0.000000 -1.000000
vn 0.000000 0.000000 -1.000000
vn 0.000000 0.000000 -1.000000
vn 0.000000 -1.000000 0.000000
vn 0.000000 -1.000000 0.000000
vn 0.000000 -1.000000 0.000000
vn 0.000000 -1.000000 0.000000
vn 1.000000 0.000000 0.000000
vn 1.000000 0.000000 0.000000
vn 1.000000 0.000000 0.000000
vn 1.000000 0.000000 0.000000
vn -1.000000 0.000000 0.000000
vn -1.000000 0.000000 0.000000
vn -1.000000 0.000000 0.000000
vn -1.000000 0.000000 0.000000
vn 0.000000 0.000000 1.000000
vn 0.000000 0.000000 1.000000
vn 0.000000 0.000000 1.000000
vn 0.000000 0.000000 1.000000
vn 0.825811 0.563947 0.000000
vn 0.825811 0.563947 0.000000
vn 0.825811 0.563947 0.000000
vn 0.825811 0.563947 0.000000
vn 0.000000 0.000000 -1.000000
vn 0.000000 0.000000 -1.000000
vn 0.000000 0.000000 -1.000000
vn 0.000000 0.000000 -1.000000
vn -0.825811 -0.563947 0.000000
vn -0.825811 -0.563947 0.000000
vn -0.825811 -0.563947 0.000000
vn -0.825811 -0.563947 0.000000
vn 0.563947 -0.825811 0.000000
vn 0.563947 -0.825811 0.000000
vn 0.563947 -0.825811 0.000000
vn 0.563947 -0.825811 0.000000
vn -0.563947 0.825811 0.000000
vn -0.563947 0.825811 0.000000
vn -0.563947 0.825811 0.000000
vn -0.563947 0.825811 0.000000
vn 0.000000 0.000000 1.000000
vn 0.000000 0.000000 1.000000
vn 0.000000 0.000000 1.000000
vn 0.000000 0.000000 1.000000
vn -0.811252 0.584697 0.000000
vn -0.811252 0.584697 0.000000
vn -0.811252 0.584697 0.000000
vn -0.811252 0.584697 0.000000
vn 0.000000 0.000000 -1.000000
vn 0.000000 0.000000 -1.000000
vn 0.000000 0.000000 -1.000000
vn 0.000000 0.000000 -1.000000
vn 0.811252 -0.584697 0.000000
vn 0.811252 -0.584697 0.000000
vn 0.811252 -0.584697 0.000000
vn 0.811252 -0.584697 0.000000
vn 0.584697 0.811251 0.000000
vn 0.584697 0.811251 0.000000
vn 0.584697 0.811251 0.000000
vn 0.584697 0.811251 0.000000
vn -0.584697 -0.811251 0.000000
vn -0.584697 -0.811251 0.000000
vn -0.584697 -0.811251 0.000000
vn -0.584697 -0.811251 0.000000
s off
g Insulto Signo4
usemtl lambert2SG
f 89/184/265 90/183/266 92/157/267 91/158/268
f 91/158/269 92/157/270 94/159/271 93/160/272
f 93/160/273 94/159/274 96/179/275 95/181/276
f 95/162/277 96/161/278 90/156/279 89/155/280
f 90/156/281 96/161/282 94/159/283 92/157/284
f 95/162/285 89/155/286 91/182/287 93/180/288
f 97/163/289 98/164/290 100/194/291 99/196/292
f 99/166/293 100/195/294 102/191/295 101/193/296
f 101/168/297 102/192/298 104/169/299 103/170/300
f 103/170/301 104/169/302 98/164/303 97/163/304
f 98/164/305 104/169/306 102/167/307 100/165/308
f 103/170/309 97/163/310 99/166/311 101/193/312
f 105/171/313 106/190/314 108/188/315 107/174/316
f 107/174/317 108/189/318 110/185/319 109/176/320
f 109/176/321 110/186/322 112/187/323 111/178/324
f 111/178/325 112/177/326 106/172/327 105/171/328
f 106/172/329 112/177/330 110/175/331 108/173/332
f 111/178/333 105/171/334 107/174/335 109/176/336
g default
v 9.500001 -0.500000 0.500000
v 8.500001 -0.500000 0.500000
v 9.500001 -1.500000 0.500000
v 8.500001 -1.500000 0.500000
v 9.500001 -1.500000 -0.500000
v 8.500001 -1.500000 -0.500000
v 9.500001 -0.500000 -0.500000
v 8.500001 -0.500000 -0.500000
v 9.500001 3.500000 0.500000
v 8.500001 3.500000 0.500000
v 9.500001 0.500000 0.500000
v 8.500001 0.500000 0.500000
v 9.500001 0.500000 -0.500000
v 8.500001 0.500000 -0.500000
v 9.500001 3.500000 -0.500000
v 8.500001 3.500000 -0.500000
vt 0.626414 0.447955
vt 0.626420 0.344898
vt 0.626414 0.241853
vt 0.626414 0.551008
vt 0.523361 0.241849
vt 0.523363 0.551012
vt 0.523358 0.344903
vt 0.523362 0.447962
vt 0.195029 0.388667
vt 0.195033 0.291999
vt 0.195032 0.001994
vt 0.195026 0.678673
vt 0.098362 0.001993
vt 0.098356 0.678675
vt 0.098357 0.291996
vt 0.098365 0.388663
vt 0.626415 0.654060
vt 0.523359 0.654059
vt 0.420311 0.551005
vt 0.729466 0.551008
vt 0.420305 0.447952
vt 0.729467 0.447955
vt 0.001690 0.678671
vt 0.001690 0.388667
vt 0.291741 0.388618
vt 0.291738 0.678723
vt 0.195026 0.775341
vt 0.098357 0.775340
vn 0.000000 0.000000 1.000000
vn 0.000000 0.000000 1.000000
vn 0.000000 0.000000 1.000000
vn 0.000000 0.000000 1.000000
vn 0.000000 -1.000000 0.000000
vn 0.000000 -1.000000 0.000000
vn 0.000000 -1.000000 0.000000
vn 0.000000 -1.000000 0.000000
vn 0.000000 0.000000 -1.000000
vn 0.000000 0.000000 -1.000000
vn 0.000000 0.000000 -1.000000
vn 0.000000 0.000000 -1.000000
vn 0.000000 1.000000 0.000000
vn 0.000000 1.000000 0.000000
vn 0.000000 1.000000 0.000000
vn 0.000000 1.000000 0.000000
vn -1.000000 0.000000 0.000000
vn -1.000000 0.000000 0.000000
vn -1.000000 0.000000 0.000000
vn -1.000000 0.000000 0.000000
vn 1.000000 0.000000 0.000000
vn 1.000000 0.000000 0.000000
vn 1.000000 0.000000 0.000000
vn 1.000000 0.000000 0.000000
vn 0.000000 0.000000 1.000000
vn 0.000000 0.000000 1.000000
vn 0.000000 0.000000 1.000000
vn 0.000000 0.000000 1.000000
vn 0.000000 -1.000000 0.000000
vn 0.000000 -1.000000 0.000000
vn 0.000000 -1.000000 0.000000
vn 0.000000 -1.000000 0.000000
vn 0.000000 0.000000 -1.000000
vn 0.000000 0.000000 -1.000000
vn 0.000000 0.000000 -1.000000
vn 0.000000 0.000000 -1.000000
vn 0.000000 1.000000 0.000000
vn 0.000000 1.000000 0.000000
vn 0.000000 1.000000 0.000000
vn 0.000000 1.000000 0.000000
vn -1.000000 0.000000 0.000000
vn -1.000000 0.000000 0.000000
vn -1.000000 0.000000 0.000000
vn -1.000000 0.000000 0.000000
vn 1.000000 0.000000 0.000000
vn 1.000000 0.000000 0.000000
vn 1.000000 0.000000 0.000000
vn 1.000000 0.000000 0.000000
s off
g Insulto Exclamacion2
usemtl lambert2SG
f 113/197/337 114/218/338 116/216/339 115/200/340
f 115/200/341 116/213/342 118/214/343 117/202/344
f 117/202/345 118/215/346 120/217/347 119/204/348
f 119/204/349 120/203/350 114/198/351 113/197/352
f 114/198/353 120/203/354 118/201/355 116/199/356
f 119/204/357 113/197/358 115/200/359 117/202/360
f 121/205/361 122/221/362 124/222/363 123/208/364
f 123/208/365 124/223/366 126/224/367 125/210/368
f 125/210/369 126/219/370 128/220/371 127/212/372
f 127/212/373 128/211/374 122/206/375 121/205/376
f 122/206/377 128/211/378 126/209/379 124/207/380
f 127/212/381 121/205/382 123/208/383 125/210/384
